<mxfile host="app.diagrams.net" modified="2023-09-29T14:55:44.972Z" agent="Mozilla/5.0 (Windows NT 10.0; Win64; x64) AppleWebKit/537.36 (KHTML, like Gecko) Chrome/117.0.0.0 Safari/537.36 Edg/117.0.2045.41" etag="UxpYarWSUIIWLPlSq2Zc" version="21.8.2" type="github">
  <diagram name="第 1 页" id="fM8ZoEg2tMh_4A5Gsyvf">
    <mxGraphModel dx="916" dy="1742" grid="1" gridSize="10" guides="1" tooltips="1" connect="1" arrows="1" fold="1" page="1" pageScale="1" pageWidth="827" pageHeight="1169" math="0" shadow="0">
      <root>
        <mxCell id="0" />
        <mxCell id="1" parent="0" />
        <mxCell id="SVVQ4AVB_GTqvJ0-vTll-1" value="iamai" style="rounded=0;whiteSpace=wrap;html=1;" vertex="1" parent="1">
          <mxGeometry x="357" y="60" width="114" height="60" as="geometry" />
        </mxCell>
        <mxCell id="SVVQ4AVB_GTqvJ0-vTll-2" value="HydroRoll&lt;br&gt;" style="rounded=0;whiteSpace=wrap;html=1;" vertex="1" parent="1">
          <mxGeometry x="354" y="210" width="120" height="60" as="geometry" />
        </mxCell>
        <mxCell id="SVVQ4AVB_GTqvJ0-vTll-4" value="Psi" style="rounded=1;whiteSpace=wrap;html=1;" vertex="1" parent="1">
          <mxGeometry x="354" y="460" width="120" height="60" as="geometry" />
        </mxCell>
        <mxCell id="SVVQ4AVB_GTqvJ0-vTll-5" value="HydroRollCore" style="rounded=1;whiteSpace=wrap;html=1;" vertex="1" parent="1">
          <mxGeometry x="670" y="460" width="120" height="60" as="geometry" />
        </mxCell>
        <mxCell id="SVVQ4AVB_GTqvJ0-vTll-16" value="Tokens" style="html=1;verticalAlign=bottom;endArrow=open;dashed=1;endSize=8;curved=0;rounded=0;entryX=0.25;entryY=1;entryDx=0;entryDy=0;exitX=0.25;exitY=0;exitDx=0;exitDy=0;" edge="1" parent="1" source="SVVQ4AVB_GTqvJ0-vTll-4" target="SVVQ4AVB_GTqvJ0-vTll-2">
          <mxGeometry relative="1" as="geometry">
            <mxPoint x="414" y="389.5" as="sourcePoint" />
            <mxPoint x="334" y="389.5" as="targetPoint" />
          </mxGeometry>
        </mxCell>
        <mxCell id="SVVQ4AVB_GTqvJ0-vTll-17" value="Events" style="html=1;verticalAlign=bottom;endArrow=block;curved=0;rounded=0;entryX=0.75;entryY=0;entryDx=0;entryDy=0;exitX=0.75;exitY=1;exitDx=0;exitDy=0;fillColor=#f8cecc;strokeColor=#b85450;" edge="1" parent="1" source="SVVQ4AVB_GTqvJ0-vTll-2" target="SVVQ4AVB_GTqvJ0-vTll-4">
          <mxGeometry width="80" relative="1" as="geometry">
            <mxPoint x="370" y="300" as="sourcePoint" />
            <mxPoint x="450" y="300" as="targetPoint" />
          </mxGeometry>
        </mxCell>
        <mxCell id="SVVQ4AVB_GTqvJ0-vTll-18" value="Tokens" style="html=1;verticalAlign=bottom;startArrow=oval;startFill=1;endArrow=block;startSize=8;curved=0;rounded=0;entryX=0;entryY=0.5;entryDx=0;entryDy=0;exitX=1;exitY=0.5;exitDx=0;exitDy=0;fillColor=#f8cecc;strokeColor=#b85450;" edge="1" parent="1" source="SVVQ4AVB_GTqvJ0-vTll-4" target="SVVQ4AVB_GTqvJ0-vTll-5">
          <mxGeometry width="60" relative="1" as="geometry">
            <mxPoint x="380" y="300" as="sourcePoint" />
            <mxPoint x="440" y="300" as="targetPoint" />
          </mxGeometry>
        </mxCell>
        <mxCell id="SVVQ4AVB_GTqvJ0-vTll-19" value="Signal" style="html=1;verticalAlign=bottom;endArrow=open;dashed=1;endSize=8;curved=0;rounded=0;exitX=0.25;exitY=0;exitDx=0;exitDy=0;entryX=1;entryY=0.75;entryDx=0;entryDy=0;fillColor=#f8cecc;strokeColor=#b85450;" edge="1" parent="1" source="SVVQ4AVB_GTqvJ0-vTll-5" target="SVVQ4AVB_GTqvJ0-vTll-2">
          <mxGeometry relative="1" as="geometry">
            <mxPoint x="670" y="370" as="sourcePoint" />
            <mxPoint x="590" y="390" as="targetPoint" />
          </mxGeometry>
        </mxCell>
        <mxCell id="SVVQ4AVB_GTqvJ0-vTll-21" value="Events" style="html=1;verticalAlign=bottom;endArrow=block;curved=0;rounded=0;entryX=0.75;entryY=0;entryDx=0;entryDy=0;exitX=0.75;exitY=1;exitDx=0;exitDy=0;" edge="1" parent="1" source="SVVQ4AVB_GTqvJ0-vTll-1" target="SVVQ4AVB_GTqvJ0-vTll-2">
          <mxGeometry width="80" relative="1" as="geometry">
            <mxPoint x="370" y="300" as="sourcePoint" />
            <mxPoint x="450" y="300" as="targetPoint" />
          </mxGeometry>
        </mxCell>
        <mxCell id="SVVQ4AVB_GTqvJ0-vTll-22" value="Signal" style="html=1;verticalAlign=bottom;endArrow=open;dashed=1;endSize=8;curved=0;rounded=0;entryX=0.25;entryY=1;entryDx=0;entryDy=0;exitX=0.25;exitY=0;exitDx=0;exitDy=0;" edge="1" parent="1" source="SVVQ4AVB_GTqvJ0-vTll-2" target="SVVQ4AVB_GTqvJ0-vTll-1">
          <mxGeometry relative="1" as="geometry">
            <mxPoint x="240" y="160" as="sourcePoint" />
            <mxPoint x="370" y="300" as="targetPoint" />
          </mxGeometry>
        </mxCell>
        <mxCell id="SVVQ4AVB_GTqvJ0-vTll-23" value="go-cqhttp" style="shape=module;align=left;spacingLeft=20;align=center;verticalAlign=top;whiteSpace=wrap;html=1;" vertex="1" parent="1">
          <mxGeometry x="40" y="50" width="100" height="50" as="geometry" />
        </mxCell>
        <mxCell id="SVVQ4AVB_GTqvJ0-vTll-24" value="Mirai" style="shape=module;align=left;spacingLeft=20;align=center;verticalAlign=top;whiteSpace=wrap;html=1;" vertex="1" parent="1">
          <mxGeometry x="40" y="150" width="100" height="50" as="geometry" />
        </mxCell>
        <mxCell id="SVVQ4AVB_GTqvJ0-vTll-25" value="KOOK" style="shape=module;align=left;spacingLeft=20;align=center;verticalAlign=top;whiteSpace=wrap;html=1;" vertex="1" parent="1">
          <mxGeometry x="40" y="-50" width="100" height="50" as="geometry" />
        </mxCell>
        <mxCell id="SVVQ4AVB_GTqvJ0-vTll-26" value="Events" style="html=1;verticalAlign=bottom;endArrow=block;curved=0;rounded=0;entryX=0;entryY=0.25;entryDx=0;entryDy=0;exitX=-0.039;exitY=0.649;exitDx=0;exitDy=0;exitPerimeter=0;" edge="1" parent="1" source="SVVQ4AVB_GTqvJ0-vTll-27" target="SVVQ4AVB_GTqvJ0-vTll-1">
          <mxGeometry width="80" relative="1" as="geometry">
            <mxPoint x="220" y="60" as="sourcePoint" />
            <mxPoint x="290" y="174.5" as="targetPoint" />
          </mxGeometry>
        </mxCell>
        <mxCell id="SVVQ4AVB_GTqvJ0-vTll-27" value="" style="strokeWidth=2;html=1;shape=mxgraph.flowchart.annotation_1;align=left;pointerEvents=1;rotation=-180;" vertex="1" parent="1">
          <mxGeometry x="139.91" y="-29.82" width="70.35" height="210.18" as="geometry" />
        </mxCell>
        <mxCell id="SVVQ4AVB_GTqvJ0-vTll-28" value="" style="endArrow=block;endFill=1;html=1;edgeStyle=orthogonalEdgeStyle;align=left;verticalAlign=top;rounded=0;exitX=1;exitY=0.5;exitDx=0;exitDy=0;exitPerimeter=0;entryX=0;entryY=0.5;entryDx=0;entryDy=0;entryPerimeter=0;" edge="1" parent="1" source="SVVQ4AVB_GTqvJ0-vTll-27" target="SVVQ4AVB_GTqvJ0-vTll-27">
          <mxGeometry x="-1" relative="1" as="geometry">
            <mxPoint x="330" y="120" as="sourcePoint" />
            <mxPoint x="490" y="120" as="targetPoint" />
            <mxPoint as="offset" />
          </mxGeometry>
        </mxCell>
        <mxCell id="SVVQ4AVB_GTqvJ0-vTll-30" value="Signal" style="html=1;verticalAlign=bottom;endArrow=open;dashed=1;endSize=8;curved=0;rounded=0;entryX=-0.005;entryY=0.302;entryDx=0;entryDy=0;entryPerimeter=0;exitX=0;exitY=0.75;exitDx=0;exitDy=0;" edge="1" parent="1" source="SVVQ4AVB_GTqvJ0-vTll-1" target="SVVQ4AVB_GTqvJ0-vTll-27">
          <mxGeometry relative="1" as="geometry">
            <mxPoint x="450" y="120" as="sourcePoint" />
            <mxPoint x="370" y="120" as="targetPoint" />
          </mxGeometry>
        </mxCell>
      </root>
    </mxGraphModel>
  </diagram>
</mxfile>
